<svg xmlns="http://www.w3.org/2000/svg" viewBox="0 0 48 48" fill="none" aria-hidden="true">
  <rect width="48" height="48" rx="12" fill="url(#g)"/>
  <defs>
    <linearGradient id="g" x1="8" y1="10" x2="40" y2="38" gradientUnits="userSpaceOnUse">
      <stop stop-color="#6366f1"/>
      <stop offset="1" stop-color="#4f46e5"/>
    </linearGradient>
  </defs>
  <path fill="#fff" fill-opacity=".95" d="M14 14h9.5c1.4 0 2.5 1.1 2.5 2.5V34a.5.5 0 0 1-.8.4l-4.2-3.1a2 2 0 0 0-2.4 0l-4.2 3.1A.5.5 0 0 1 14 34V14Zm20 0h-8v15.5c.3-.2.7-.3 1-.5a4 4 0 0 1 4.2 0l2.8 2V16.5c0-1.4-1.1-2.5-2.5-2.5Z"/>
</svg>
